<?xml version="1.0"?><svg width="640" height="480" xmlns="http://www.w3.org/2000/svg">
 <title>Black Lotus</title>
 <metadata id="metadata7">image/svg+xml</metadata>
 <g>
  <title>Layer 1</title>
  <g id="svg_1">
   <path id="path2637" d="m293.558502,326.097992c-3.152985,-0.864624 -6.307709,0.102234 -9.464447,0.629303c-6.14267,1.242798 -12.129364,3.075958 -18.175079,4.701355c-6.427155,1.80365 -11.982025,5.343567 -17.603973,8.833435c-4.334442,3.175629 -7.536591,7.160248 -10.512024,11.515991c-3.453278,5.671753 -5.351166,12.077057 -7.096375,18.434082c-2.356689,7.947815 -3.500702,16.188904 -4.851379,24.354309c-1.158295,8.406647 -2.600067,16.755127 -3.955353,25.121613c-0.839447,7.253021 -2.394257,14.364899 -4.249298,21.41629c-1.557495,5.506775 -3.424988,10.924072 -4.987854,16.439575c-1.382721,2.943176 -2.636383,5.978699 -3.937714,8.877258c-0.569244,1.804993 -1.474365,3.498352 -2.205414,5.169556c1.805878,-4.444885 -0.646301,-6.126892 -5.248596,-7.474243c-0.232422,0.574585 2.386749,-1.193542 3.094452,-1.547607c3.797058,-3.446472 7.529358,-6.950684 10.966675,-10.75c4.895569,-5.516357 10.541962,-10.311401 16.261353,-14.939697c5.265106,-4.252625 10.874512,-8.100647 16.389709,-12.001404c6.188477,-4.094208 12.317139,-8.279602 18.005554,-13.063171c7.484497,-6.557404 13.531067,-14.289185 19.488953,-22.185059c5.002045,-7.735565 8.792694,-16.066956 12.184448,-24.600403c2.930328,-7.066071 5.499298,-14.265656 8.043427,-21.477173c3.215576,-3.168823 2.523132,-6.484833 3.347473,-9.906769c0.469818,-1.950073 2.031219,-2.313995 2.799072,-0.460907l0,0c1.591064,3.839691 2.819855,7.898743 4.471069,11.868896c0.271057,9.100433 -2.361603,17.431427 -6.422546,25.541199c-4.532104,8.84726 -8.924316,17.861908 -14.763611,25.936676c-5.987579,8.811981 -13.073212,16.925354 -20.520905,24.531372c-5.714569,5.863373 -11.374725,11.827118 -18.405457,16.144196c-5.431885,3.390991 -10.937927,6.698853 -16.109283,10.508728c-5.296173,4.372314 -10.397369,8.861267 -15.099823,13.862122c-4.608276,3.948975 -8.951172,8.32959 -14.599487,10.896179c-2.530609,1.435974 -5.06723,3.147156 -7.944733,3.698608c-6.430481,-1.600525 -7.838135,-4.115906 -5.728546,-9.788818c0.77652,-1.328552 1.625885,-2.842529 2.477448,-4.23877c1.118347,-2.824036 2.461334,-5.683411 3.35849,-8.659119c2.510895,-4.796387 4.595459,-9.717651 6.24588,-14.879822c1.922638,-6.756653 3.8284,-13.506775 5.201416,-20.400482c1.657562,-8.261414 3.025696,-16.572754 4.414581,-24.888184c1.435364,-8.397827 3.199554,-16.720306 4.845978,-25.075256c2.031921,-7.078644 3.816559,-14.211548 7.227631,-20.792969c3.439972,-5.648682 6.76236,-11.235962 12.660675,-14.666382c6.057892,-4.113922 12.342865,-7.710022 18.905151,-10.97229c6.034882,-3.031799 12.176117,-5.75351 18.622681,-7.823181c3.994293,-1.345398 8.026154,-2.549652 12.066345,-3.729492c10.765778,-3.143829 11.619568,18.806519 0.803436,15.840454z" stroke-width="1px" fill-rule="nonzero" fill="#000000"/>
   <path id="path2639" d="m313.622955,318.381409c2.550232,0.102173 5.094482,1.038879 7.559875,1.813171c4.701141,1.216919 9.421112,2.182739 14.219177,2.944977c5.783325,1.552032 11.792633,1.811005 17.719147,2.028839c5.33252,0.175659 10.519531,-0.38327 15.740173,-1.289551c6.149811,-1.05954 11.703033,-3.891907 17.302368,-6.509247c5.311462,-2.793335 9.918884,-6.403809 14.385345,-10.350006c2.539398,-2.078644 3.87619,-5.032379 5.424042,-7.613739c1.084717,-1.100494 0.477295,-2.534729 0.695374,-3.693329c-0.023926,-0.498383 -0.19989,-0.821533 -0.318787,-1.310089c-0.18634,-0.365204 0.277527,0.771484 0.416321,1.157257c0.520264,0.306854 1.163391,0.325562 1.744995,0.488342c-3.673523,-0.170502 -7.416656,0.880798 -11.020599,1.662872c-6.480408,1.793701 -13.030945,3.298431 -19.534943,5.030304c-6.368896,1.506378 -12.732941,2.998108 -19.128784,4.37677c-6.611053,2.436584 -13.118469,3.238983 -19.703705,2.759918c-6.942108,1.630249 -14.019562,2.480164 -21.088715,3.319366c-1.991882,0.23645 -2.30777,-2.582825 -0.315826,-2.819092l0,0c6.960785,-0.825623 13.930084,-1.659943 20.765991,-3.264191c5.562988,-3.311127 11.814941,-5.704926 18.659729,-6.822845c6.355896,-1.614929 12.781769,-2.842316 19.2052,-4.209473c6.423035,-1.492371 12.707642,-3.311279 18.821075,-5.80249c4.015289,-1.539642 8.05249,-3.019104 12.113708,-4.383179c3.194458,-0.465607 5.211548,-1.169891 7.985046,1.134705c0.812439,1.512573 2.4328,2.794952 2.365845,4.665283c0.142944,1.606384 0.671448,3.178589 0.432556,4.863708c-0.599792,2.642883 -1.130432,5.300934 -2.306396,7.769379c-2.781189,3.64743 -5.270142,7.463013 -9.397217,9.803589c-5.310852,3.738831 -10.759155,7.337311 -16.680389,10.052917c-6.163513,3.311768 -12.363586,6.653076 -19.150146,8.515594c-5.927216,0.762543 -11.823181,1.128204 -17.791138,0.34906c-6.254547,-0.47937 -12.559875,-1.013519 -18.832184,-1.706573c-4.842529,-1.095551 -9.685303,-2.134827 -14.580017,-2.983459c-2.979156,-0.63678 -6.011261,-0.985229 -8.525055,-2.84436c-4.361023,-3.225311 -2.601837,-7.351593 2.817932,-7.13443z" stroke-width="1px" fill-rule="nonzero" fill="#000000"/>
   <path id="path2647" d="m429.612366,288.249481c5.826721,0.655487 10.788574,-0.867371 16.738647,-0.714661c10.041809,1.18689 20.05835,2.418976 30.070984,3.782257c11.815063,2.479858 22.906982,7.276398 34.311951,11.095062c10.143494,4.48645 20.496277,8.470459 30.529968,13.19696c6.574524,2.326843 12.490723,6.021545 18.682312,9.16153c3.747437,1.171204 6.603455,3.75354 9.552551,6.210449c4.047607,3.832642 5.219177,7.239014 4.553223,12.933411c-3.207275,6.370361 -6.169312,5.456207 -12.609619,3.390656c-1.910034,-0.61261 -1.195129,-0.317841 -1.724121,-2.252716l0,0c-0.316956,-1.159271 -2.026489,-10.222107 -3.974182,-5.394867c0.076416,0.718933 1.194336,7.778473 0.66864,4.174164c-1.816284,-1.836212 -3.517029,-3.879883 -5.451477,-5.637817c-4.897583,-4.194733 -10.069336,-7.994934 -15.239929,-11.856812c-9.382202,-5.310669 -18.841431,-10.440094 -28.968506,-14.24823c-10.283386,-5.091888 -21.125916,-8.918274 -32.263855,-11.680664c-9.35968,-2.785889 -18.721741,-3.920319 -28.523376,-3.380585c-5.65918,-0.204865 -10.436401,-2.182495 -15.925354,-0.896027c-5.434509,1.273743 -5.97467,-8.506134 -0.427856,-7.882111z" stroke-width="1px" fill-rule="nonzero" fill="#000000"/>
   <path id="path2679" d="m317.800476,292.588837c1.303345,-2.283569 3.211548,-4.180023 4.668884,-6.444733c1.737732,-2.426636 2.832367,-5.175995 3.9375,-7.920074c0.875916,-2.622986 1.46521,-5.313232 2.144073,-7.999146c0.63208,-2.820923 0.333313,-5.632233 0.039398,-8.469086c-0.763733,-3.847626 -2.26413,-7.479584 -3.560211,-11.168274c-2.22348,-4.691803 -4.121277,-9.492004 -6.739655,-13.991516c-2.390778,-5.026001 -6.094055,-9.266144 -9.625,-13.522369c-3.691528,-4.440857 -8.433899,-7.775574 -12.632965,-11.665833c-3.909454,-3.336212 -7.919434,-6.539703 -12.093414,-9.535248c-2.666687,-2.040344 -5.601013,-3.683563 -8.400726,-5.51416c-1.575348,-0.706238 -2.933228,-1.726746 -4.413635,-2.596924c-0.750458,-0.17984 -1.482178,-0.333618 -2.227081,-0.501343c-0.41214,-1.971283 -0.941498,-1.085846 -2.367218,-1.460693c-1.386566,0.931915 -2.425598,2.227966 -3.388641,3.575012c-1.411926,2.444702 -2.457336,5.062408 -3.492798,7.670959c-1.332458,3.259155 -1.773529,6.774902 -2.190308,10.249695c-0.303131,4.180725 -0.457092,8.424805 -0.342285,12.62149c0.267761,5.223633 1.106995,10.417206 2.100769,15.551575c1.282257,5.54599 3.093811,10.935364 4.789581,16.362091c2.195557,5.278687 4.403534,10.5112 7.08905,15.56546c2.859009,4.546326 5.251129,9.341644 8.529449,13.615845c3.545685,4.64325 7.652893,9.029144 12.213898,12.688171c3.262451,2.431305 5.577789,5.596222 9.114014,7.625031c0.869934,0.499115 0.163361,1.729706 -0.706268,1.230042l0,0c-3.599457,-2.068207 -7.76123,-3.004669 -10.838745,-5.949097c-4.703888,-4.093536 -9.598877,-7.962769 -13.448059,-12.937469c-3.160004,-4.596558 -6.246826,-9.302887 -8.418304,-14.462616c-2.573761,-5.270813 -5.196381,-10.59375 -6.903595,-16.213989c-2.055573,-5.461212 -3.420258,-11.151398 -4.439606,-16.891937c-1.194611,-5.318878 -2.29837,-10.625366 -2.50177,-16.094299c-0.108429,-4.400299 -0.172607,-8.74057 0.520782,-13.110931c0.584747,-3.706818 1.114166,-7.384644 2.242798,-10.984497c0.999603,-2.842194 2.004333,-5.692871 3.502411,-8.322815c1.022705,-2.125397 1.795166,-4.261292 3.760132,-5.796722c1.706116,-1.656555 3.38269,-3.251495 5.35968,-4.565613c2.114136,0.042236 4.137787,0.004211 6.069427,1.053314c2.281189,0.853668 4.380676,1.820313 6.176819,3.513458c2.947449,2.103424 5.69281,4.445679 8.445557,6.803619c3.95639,3.515106 7.875305,7.064362 11.721191,10.701416c4.584961,3.957947 8.670074,8.492828 12.809631,12.91626c4.04599,4.530609 7.551025,9.445465 10.958893,14.461395c2.611816,4.79425 5.354126,9.575439 7.299957,14.684265c2.061279,4.086304 3.859314,8.325684 4.904388,12.79425c0.704285,3.973541 1.148834,7.87854 0.214905,11.891205c-0.656036,3.470856 -1.437347,6.842896 -3.205566,9.953766c-1.71286,3.024933 -3.550476,5.992828 -5.810638,8.673737c-1.741364,2.035645 -3.147919,4.492218 -5.095642,6.215485c-3.81073,3.371613 -8.293243,0.12085 -5.771057,-4.298157z" stroke-width="1px" fill-rule="nonzero" fill="#000000"/>
   <path id="path2687" d="m366.850128,291.574341c2.121765,-0.10553 4.175201,-0.872772 6.240051,-1.597748c5.60907,-2.517731 9.63382,-7.356171 13.44046,-12.011047c5.789734,-7.930176 9.777008,-16.890015 13.398712,-25.961639c3.610626,-9.308624 6.360809,-18.911224 8.91629,-28.552002c2.033752,-7.863617 3.456848,-15.855164 4.718689,-23.87149c0.985229,-6.293335 1.454346,-12.663696 1.290771,-19.030792c0.001282,-4.770447 -0.799316,-9.442291 -1.585205,-14.12442c-0.761658,-3.572205 -1.836975,-7.073547 -2.960266,-10.534698c-0.431396,-2.088791 -1.592285,-3.709869 -2.812195,-5.370193c-0.362915,-0.611191 -0.947998,-1.059418 -1.421997,-1.589142c2.067871,-1.390625 -2.614441,0.467453 -3.214508,0.753006c-4.353119,3.036041 -7.779663,7.045746 -10.978485,11.241898c-4.871887,6.913681 -8.479858,14.538864 -12.149353,22.124985c-4.69928,9.578796 -8.825806,19.41214 -12.598816,29.387878c-4.013397,10.844452 -7.399261,21.910187 -10.281067,33.105133c-2.601379,10.646515 -4.611755,21.443542 -5.670074,32.354431c-0.901825,4.456879 -0.675049,8.959229 -0.44696,13.458496c0.050781,1.001678 -1.366272,1.073181 -1.416595,0.071503l0,0c-0.230194,-4.58136 -0.328217,-9.160309 -0.363434,-13.747864c1.089813,-11.046783 2.991364,-21.953766 6.332062,-32.569336c3.290741,-11.125305 6.385803,-22.319855 10.51944,-33.174164c3.789032,-10.016937 7.70639,-19.997589 12.601135,-29.53656c3.796112,-7.611603 7.428833,-15.304169 11.269684,-22.887314c2.705994,-5.040863 5.696167,-9.904388 9.741974,-13.992569c2.896057,-3.22023 5.681305,-6.579239 10.457977,-5.78154c2.582214,1.311203 4.594482,2.689713 6.263672,5.165756c1.362061,2.706528 2.538635,5.462784 3.259644,8.429382c0.822632,3.894608 1.610718,7.799057 2.195374,11.739655c0.70459,5.155029 1.135742,10.350952 0.885681,15.561768c-0.307983,6.777344 -0.858337,13.542419 -2.283875,20.192871c-1.765137,8.095001 -4.119873,16.041565 -6.520935,23.967773c-2.837402,9.740631 -5.809082,19.420532 -9.455139,28.897675c-3.677368,9.471924 -7.62442,18.893677 -12.745605,27.687469c-3.71991,6.332672 -7.89328,12.194427 -14.017334,16.436462c-2.664917,1.710175 -5.477905,3.691223 -8.549957,4.24176c-7.437592,1.332855 -9.606567,-10.110016 -2.059814,-10.485382z" stroke-width="1px" fill-rule="nonzero" fill="#000000"/>
   <path id="path2689" d="m396.268372,286.599915c2.710083,-1.184296 5.243591,-3.06662 7.640259,-4.843536c5.700073,-4.562408 10.771057,-9.846161 15.736389,-15.18103c5.261841,-5.935791 9.971558,-12.311493 14.362854,-18.90799c3.932312,-6.254395 7.82782,-12.505554 11.487122,-18.923889c3.386963,-5.686005 6.640198,-11.363708 8.708252,-17.707214c0.29187,-0.999237 0.583679,-1.998535 0.875488,-2.997772c0.281128,-0.962738 1.642822,-0.564911 1.361511,0.397736l0,0c-0.296204,1.013275 -0.592407,2.02655 -0.88855,3.039825c-2.085388,6.390869 -3.836548,12.997711 -6.870911,18.986237c-3.40802,6.674103 -7.180481,13.246002 -11.619629,19.289093c-4.629944,6.618561 -9.110596,13.369598 -14.430542,19.466919c-4.788879,5.681976 -9.993469,10.989288 -14.812256,16.643799c-2.295776,2.765045 -4.467529,5.653625 -7.097992,8.118011c-4.447632,4.16687 -10.036682,-4.939758 -4.451996,-7.380188z" stroke-width="1px" fill-rule="nonzero" fill="#000000"/>
   <path id="path2691" d="m463.091187,159.840744c-0.319946,-1.326721 0.393188,-3.319916 0.77887,-4.863342c0.587402,-2.517685 0.629578,-5.067657 0.495422,-7.630142c0.16217,-2.101303 -0.208801,-4.180695 -0.443726,-6.254959c0.096741,-0.696075 -0.547241,-1.935486 -0.621033,-2.196808c1.832397,1.139954 0.01886,-0.097961 -0.171997,0.892227c-3.719116,2.852875 -6.222595,6.904861 -8.608765,10.866608c-4.496399,7.348358 -9.299072,14.501831 -14.087708,21.66098c-5.30658,7.812042 -10.713013,15.554108 -15.930176,23.426636c-5.212769,7.829163 -10.12738,15.848907 -14.696777,24.069122c-0.487366,0.876617 -1.727112,0.187408 -1.239746,-0.689148l0,0c4.587952,-8.252075 9.520691,-16.303894 14.754211,-24.163513c5.218384,-7.874115 10.625488,-15.618195 15.933533,-23.431671c4.776184,-7.140488 9.566528,-14.275208 14.051636,-21.604202c2.562988,-4.25528 4.555847,-8.826782 7.354675,-12.932358c2.198486,-2.287918 3.85144,-3.343948 6.674377,-1.250885c0.867249,1.609024 1.739075,2.982224 1.533691,5.012253c-0.018555,2.258011 -0.125244,4.5112 -0.124146,6.770309c-0.397156,2.677628 -0.684875,5.349045 -0.885803,8.047058c-0.095154,1.743576 0.051392,3.942627 -0.794983,5.273087c-1.554443,2.443649 -3.292603,1.814209 -3.971558,-1.001251z" stroke-width="1px" fill-rule="nonzero" fill="#000000"/>
   <path id="path2693" d="m432.203369,265.804901c1.682373,-3.748932 4.764343,-6.343567 7.497742,-9.290192c6.378113,-6.768188 11.068909,-14.833069 16.748535,-22.160339c7.351013,-8.82077 14.332886,-17.922455 20.994202,-27.271606c7.052612,-10.354767 14.543213,-20.579193 19.967529,-31.902496c4.334839,-8.955658 7.404175,-18.374893 9.985046,-27.953445c2.340149,-7.626419 4.041504,-15.424896 5.851624,-23.18927c1.016296,-5.797623 1.814087,-11.611816 2.078186,-17.491257c0.516235,-3.11554 -0.412781,-6.013962 -1.182739,-8.877182c-0.417053,-0.988754 -1.35968,-1.314362 -2.123596,-1.911713c-0.099548,-0.336502 -1.383118,0.295242 -1.984741,0.423645c-6.693542,2.22757 -11.571411,6.061996 -16.037109,11.421402c-4.172424,5.536682 -2.097168,2.645844 -6.203491,8.688522c-0.563721,0.829514 -1.737,0.031998 -1.173096,-0.797379l0,0c4.160156,-6.117935 2.057129,-3.190186 6.286987,-8.799194c4.721558,-5.664032 8.136108,-12.166824 13.119324,-17.533859c3.939575,-2.860825 7.784302,-3.806854 12.128601,-1.218597c2.257813,2.206055 4.156921,4.453156 4.712708,7.699722c0.22644,4.037186 0.024292,7.856537 -0.990906,11.809128c-1.348999,5.903412 -2.88501,11.753845 -4.679749,17.546082c-1.969482,7.799789 -4.257324,15.515823 -6.229309,23.313431c-3.215149,9.541153 -7.079102,18.876038 -11.90033,27.726166c-6.141968,11.064423 -11.508606,22.574219 -18.627075,33.09436c-6.333984,9.669342 -13.196655,18.941345 -20.209656,28.126251c-5.607178,7.380554 -11.848389,14.301117 -16.619873,22.284332c-2.212341,3.442932 -4.07312,7.052032 -7.431458,9.551025c-2.927185,2.178284 -5.471252,0.041412 -3.977356,-3.287537z" stroke-width="1px" fill-rule="nonzero" fill="#000000"/>
   <path id="path2699" d="m290.647003,313.553009c-3.262054,-1.057526 -6.518951,-2.074371 -9.826843,-3.003113c-8.836884,-2.617096 -17.443542,-5.874115 -26.000458,-9.294647c-12.161835,-3.859161 -23.4888,-9.493652 -34.13147,-16.469391c-11.258118,-7.753601 -20.432526,-17.874542 -29.059814,-28.362305c-7.076904,-8.669495 -13.249359,-18.001068 -19.219238,-27.448822c-3.297058,-5.550812 -5.50531,-11.606628 -7.98114,-17.537384c-1.254272,-2.616058 -2.334137,-5.312866 -3.500061,-7.970703c-0.649597,-1.239075 -1.298065,-2.426239 -2.002014,-3.635529c-0.79187,-4.006927 1.574646,-5.226532 5.188629,-5.118408c3.45694,1.367188 6.668884,3.25943 10.189423,4.457214c6.515137,2.949738 13.397522,5.014343 20.186829,7.232269c9.598145,4.043884 18.682495,9.235931 27.311584,15.052704c8.797668,5.243073 16.884033,11.418945 24.511902,18.223938c3.761444,4.139099 7.004303,8.640686 10.69278,12.864868c0.659637,0.755493 -0.408936,1.688385 -1.068481,0.9328l0,0c-3.660492,-4.193512 -7.692566,-7.643677 -12.155579,-10.965576c-7.464233,-6.683929 -15.333771,-12.927185 -23.428284,-18.828705c-8.630981,-5.402954 -17.127228,-11.184967 -26.846008,-14.506836c-6.703247,-2.565857 -13.694153,-4.144684 -20.700012,-5.670166c-3.159454,-1.104065 -6.46286,-1.99115 -9.810913,-2.211884c0.961975,-0.697571 3.408997,-1.370239 2.640594,-3.665894c0.335449,1.008209 0.612183,2.495758 1.106018,3.603333c0.85672,2.91333 1.604675,5.877991 1.840302,8.923676c1.235443,6.112122 3.422333,11.957397 6.018463,17.62674c4.654449,10.101349 11.134857,19.117279 18.120667,27.741394c8.535126,10.378326 17.606537,20.399384 28.742157,28.077209c10.517059,6.899963 21.71994,12.586029 33.82605,16.174744c8.758759,2.113251 17.631226,4.194366 26.643616,4.761017c2.920471,0.272339 5.976898,0.844421 8.86203,0.248718c6.073334,-1.253998 5.748444,10.681244 -0.150726,8.768738z" stroke-width="1px" fill-rule="nonzero" fill="#000000"/>
   <path id="path2725" d="m282.659027,313.06897c-2.266815,1.043457 -4.792297,1.378754 -7.27655,1.675415c-6.102081,0.561646 -12.206451,1.084595 -18.34079,1.135956c-10.108429,0.01062 -20.217529,-0.197235 -30.328552,-0.150391c-12.816528,0.176758 -25.561127,-0.777771 -38.341644,-1.570892c-14.215332,-1.019409 -28.285278,-3.061005 -42.218506,-6.023956c-13.968628,-2.944427 -27.528961,-7.298889 -41.028107,-11.867584c-11.169281,-3.688904 -21.944748,-8.370972 -32.567184,-13.386749c-6.853897,-3.529388 -13.892059,-6.786224 -20.56813,-10.660492c-3.796951,-1.955902 -7.288589,-4.497192 -10.720901,-7.026855c-2.519409,-1.878723 -4.322113,-4.218781 -5.849075,-6.902985c-1.164688,-2.120758 -1.65419,-4.450653 -2.190887,-6.767303c-0.41951,-1.560181 -0.413788,-3.117706 -0.361359,-4.708618c0.097321,-2.551971 1.431366,-4.018982 3.01181,-5.833954c2.618912,-1.340027 5.27092,-0.945404 8.058441,-0.765106c4.112106,-0.191498 8.229095,0.087067 12.346237,0.089844c6.504501,0.452057 13.004822,0.784485 19.483719,1.543854c7.621933,0.881683 15.223602,1.911438 22.843964,2.811279c7.953583,0.789215 15.630219,3.03064 23.285873,5.208771c8.072327,2.484009 16.140656,4.99118 24.258118,7.32724c7.888077,2.235657 15.121628,6.009399 22.729446,8.975525c0.934448,0.364319 0.419037,1.685883 -0.51535,1.321442l0,0c-7.615936,-2.970551 -15.519653,-4.039215 -23.384796,-6.241333c-8.112,-2.348602 -16.214691,-4.677124 -24.318298,-7.049469c-7.464523,-2.116577 -15.034882,-3.744263 -22.696564,-4.983368c-7.509583,-1.230621 -15.060776,-1.922424 -22.651657,-2.434845c-6.282715,-0.404236 -12.566727,-0.993042 -18.856857,-0.367889c-3.962418,0.240112 -7.835709,0.968811 -11.744324,1.613281c-0.337845,0.101349 -4.69252,1.487457 -2.393219,1.068604c0.242172,-0.39682 1.290207,-1.568939 1.113403,-1.78891c0.026566,0.222504 0.343964,1.631439 0.276016,2.312134c0.22496,1.16571 0.342438,2.339111 1.012405,3.352692c0.98819,1.348572 1.906631,2.719482 3.267258,3.737305c3.064194,2.470825 6.244324,4.812286 9.359909,7.229736c6.067612,4.393158 12.03627,8.886902 18.563828,12.596405c9.876984,5.839752 20.023102,11.279449 30.693192,15.541077c13.154984,4.880768 26.684586,8.804688 40.424103,11.66864c13.757477,2.596191 27.669434,4.534485 41.651031,5.353485c12.613525,0.780945 25.26767,0.591461 37.887695,-0.001434c10.003998,-0.377899 20.006714,-1.023468 29.96402,-2.028503c5.959198,-0.645081 11.928406,-1.055908 17.882141,-1.724487c2.44162,-0.192017 4.956848,-0.461884 7.288971,0.344238c4.971741,1.718597 5.729645,5.178619 0.951172,7.378204z" stroke-width="1px" fill-rule="nonzero" fill="#000000"/>
   <path id="path2731" d="m313.711731,210.122833c0.983765,-2.753876 2.768982,-5.075378 4.683228,-7.258179c3.329834,-4.87674 6.673523,-9.755859 10.161804,-14.523285c3.466125,-5.068207 7.081543,-10.008881 11.152649,-14.608582c3.258514,-3.746979 7.189423,-6.227081 11.96283,-7.464661c5.044342,-0.887817 9.301025,1.338593 13.134674,4.375366c4.805389,2.982086 6.704529,7.9534 9.651184,12.387177c0.401367,0.685333 0.802673,1.370728 1.204041,2.056091c0.506775,0.865479 -0.718384,1.582092 -1.224335,0.716125l0,0c-0.387115,-0.662567 -0.774231,-1.325104 -1.161346,-1.987671c-2.67334,-4.030212 -7.084412,-6.813202 -10.610413,-10.08902c-3.208038,-1.894775 -6.413269,-3.652649 -10.244659,-3.528809c-4.121307,0.808197 -7.727936,2.279663 -10.761322,5.396515c-4.318817,4.185394 -8.119995,8.864044 -11.476837,13.855286c-3.120209,4.933197 -6.297211,9.827362 -8.97406,15.023254c-0.701508,2.219208 -1.679443,4.358582 -1.947357,6.659424c-0.461365,3.962006 -6.891968,2.747284 -5.550079,-1.009033z" stroke-width="1px" fill-rule="nonzero" fill="#000000"/>
   <path id="path2737" d="m326.428436,189.644409c-0.598267,-0.927734 -1.683441,-1.642609 -2.553741,-2.392517c-1.39151,-1.560822 -3.176636,-2.661377 -4.855133,-3.866364c-1.790497,-1.027039 -3.783234,-1.539185 -5.766907,-2.040619c-2.242584,-0.426819 -4.502686,-0.434448 -6.768585,-0.484528c-2.146973,0.051117 -4.18045,0.676666 -6.221832,1.257324c-1.865173,0.662964 -3.329834,1.98819 -4.878632,3.161713c-1.688293,1.520599 -3.022278,3.358459 -4.294556,5.220856c-1.204041,1.728333 -1.998718,3.668274 -2.920715,5.559845c-0.144318,0.291809 -0.288635,0.583649 -0.432953,0.875519c-0.444611,0.898987 -1.545959,0.519867 -1.341095,-0.461914l0,0c0.067383,-0.322723 0.134735,-0.645477 0.202087,-0.968201c0.540955,-2.216125 1.078491,-4.484802 2.268066,-6.454559c1.371521,-2.057129 2.750854,-4.122498 4.493958,-5.910034c1.781555,-1.71228 3.475616,-3.370422 5.949158,-4.046356c2.319641,-0.692444 4.673279,-1.103973 7.100372,-1.241974c2.501678,-0.046875 4.996857,0.06601 7.441132,0.660461c2.357056,0.511902 4.658173,1.045105 6.673309,2.459961c1.845184,1.223206 3.696625,2.422363 5.460876,3.751251c1.105621,0.958008 2.200836,1.87088 3.098297,3.021423c1.418915,1.819 -1.402832,3.837524 -2.653107,1.898712z" stroke-width="1px" fill-rule="nonzero" fill="#000000"/>
   <path id="path2741" d="m240.486938,232.526459c0.095367,-1.512756 -0.366638,-3.010498 -0.659729,-4.486877c-1.00058,-3.822327 -1.837952,-7.684662 -2.758667,-11.544342c-0.976746,-5.379395 -2.424591,-10.660278 -3.496216,-16.027985c-0.772308,-5.367676 -1.433136,-10.719971 -1.641968,-16.148376c-0.207062,-4.92041 0.880768,-9.73584 1.698944,-14.551331c0.59671,-3.447601 1.112579,-6.903015 1.936676,-10.296005c0.491058,-2.676422 1.963196,-4.116791 4.103943,-5.517319c3.270416,-1.211838 5.361938,0.180908 7.807434,2.277298c3.212677,3.48172 6.453888,6.957077 9.694977,10.425064c3.829865,3.944061 6.976196,8.442078 9.988983,13.018341c0.551514,0.837708 -0.633301,1.617645 -1.184723,0.779907l0,0c-2.968414,-4.509644 -6.065338,-8.944336 -9.840576,-12.829834c-3.141846,-3.362167 -6.255341,-6.805679 -10.114136,-9.367249c-1.608337,-0.650024 -2.943573,-1.624512 -4.753021,-1.291977c-1.185822,1.049667 -2.426178,1.769394 -3.001801,3.416153c-1.217529,3.174225 -2.415649,6.34137 -3.110901,9.684723c-1.037109,4.659576 -1.411896,9.436829 -1.409393,14.204803c0.071045,5.295685 0.432831,10.672485 1.746735,15.812439c1.05426,5.285889 2.083618,10.65918 4.083832,15.67392c1.306213,3.701294 2.950653,7.168701 4.832214,10.594513c0.847534,1.604492 1.640747,3.225311 2.358765,4.891937c1.79361,4.163208 -6.566559,5.806335 -6.281372,1.282196z" stroke-width="1px" fill-rule="nonzero" fill="#000000"/>
   <path id="path2749" d="m192.875702,204.825867c-0.747803,-1.589386 -0.992462,-3.382568 -1.376495,-5.086487c-0.858002,-3.648193 -1.662079,-7.287598 -2.247528,-10.995575c-0.852905,-5.421143 -1.777466,-10.836151 -3.000732,-16.187286c-0.881958,-4.709106 -2.146912,-9.349899 -2.832611,-14.091949c-0.687134,-3.72908 -1.299133,-7.468521 -1.850464,-11.21994c-0.400116,-2.086151 -0.758026,-4.145081 -0.996124,-6.251785c0.095123,-3.030945 1.444672,-3.710739 4.051483,-4.628601c2.235077,0.738815 3.693878,2.591904 5.265961,4.252411c2.635376,2.752853 4.952698,5.777756 7.345306,8.737518c3.323822,3.668304 6.207062,7.637329 9.031189,11.698792c3.090302,4.488113 6.013428,9.082321 8.977417,13.651932c2.869781,4.066956 5.254028,8.395294 7.660583,12.737396c1.695007,4.251373 3.606445,8.395599 5.141571,12.715607c1.432678,3.83902 2.535065,7.783325 3.733856,11.697388c0.511078,3.070099 0.972137,6.139587 1.572418,9.192505c0.193542,0.9841 -1.049683,1.316162 -1.370331,0.365875l0,0c-0.989532,-2.932404 -2.079468,-5.80896 -3.294525,-8.66214c-1.097992,-3.89856 -2.324707,-7.75885 -3.46817,-11.64563c-1.393372,-4.208496 -2.517609,-8.560608 -4.847443,-12.377045c-2.045135,-4.422913 -4.528259,-8.648285 -7.008148,-12.838867c-2.820068,-4.606567 -5.774292,-9.135101 -8.980377,-13.484726c-2.896301,-3.90593 -5.76947,-7.82048 -8.944336,-11.49675c-2.485565,-2.682526 -5.043457,-5.297134 -8.060822,-7.390686c-0.45575,-0.300781 -3.100037,-2.374146 -2.70578,-1.375717c0.152527,-0.10701 2.654419,-1.672409 1.83844,-1.160004c-0.094177,1.897614 -0.304962,3.812271 -0.111053,5.718262c0.302124,3.715927 0.540985,7.425507 1.016266,11.126801c0.815704,4.667053 1.303528,9.395584 2.32605,14.031113c0.916473,5.330933 1.929199,10.683044 3.629761,15.825287c1.249237,3.416504 2.474792,6.848785 3.933289,10.176849c0.681946,1.615326 1.475677,3.209412 1.904541,4.918518c1.145477,4.564789 -4.329559,6.30542 -6.333191,2.046936z" stroke-width="1px" fill-rule="nonzero" fill="#000000"/>
   <path id="path2751" d="m191.852997,205.436554c-1.320404,-1.787476 -2.175232,-3.927551 -3.151215,-5.943787c-1.989227,-4.487701 -4.340088,-8.781586 -6.351868,-13.268036c-2.537506,-5.054504 -5.556519,-9.847229 -7.869537,-15.010986c-2.513275,-5.413513 -4.483124,-11.042679 -6.209198,-16.748077c-1.526123,-5.224808 -3.545135,-10.257248 -5.268677,-15.411926c-1.798218,-4.210144 -2.762177,-8.699051 -3.920258,-13.107529c-0.773804,-3.864182 -1.197723,-7.775452 -1.815125,-11.665634c-0.253448,-2.845856 -1.059418,-5.529236 -1.241699,-8.373032c-0.286713,-2.304825 -0.492615,-4.599304 -0.677551,-6.91658c-0.255402,-1.482346 -0.237213,-2.993225 -0.341125,-4.477356c-0.033142,-2.112885 0.843292,-4.065231 1.482147,-6.01265c0.417572,-1.376144 0.811493,-2.693542 1.221558,-4.021042c0.373016,-1.817642 1.699768,-2.684525 2.966339,-3.853485c2.121582,-1.354095 4.374908,-1.083725 6.748596,-0.737228c3.138947,1.323837 5.74939,3.495438 8.400116,5.59169c3.884369,2.98764 7.461273,6.345963 11.193024,9.515747c4.310699,4.263382 8.454407,8.716202 12.487793,13.247025c4.264679,4.624191 7.95047,9.743866 11.73407,14.771759c3.417572,4.798233 5.887848,10.131073 7.96991,15.614212c1.285156,2.658051 2.414703,5.384644 3.533325,8.115295c0.380188,0.92807 -0.932495,1.465714 -1.312531,0.537582l0,0c-1.108063,-2.70578 -2.227112,-5.407471 -3.500488,-8.041153c-2.899963,-4.952118 -5.593231,-9.997955 -8.697479,-14.829697c-3.368134,-5.260635 -7.394348,-9.788986 -11.850525,-14.158051c-4.236053,-4.210953 -8.190582,-8.69429 -12.742554,-12.580292c-3.441956,-3.202988 -7.238068,-5.982925 -11.293945,-8.366318c-2.451935,-1.134186 -4.886444,-2.404587 -7.605011,-2.757477c-0.492249,-0.176605 -0.800171,-0.504074 -1.179047,-0.422989c-0.159424,0.212265 -0.415649,0.42128 -0.540436,0.719421c-0.515991,1.213272 -1.072815,2.403427 -1.534241,3.687683c-0.381348,1.236069 -0.81781,2.387665 -0.717926,3.738876c0.006287,1.516479 0.173767,3.066147 -0.071625,4.586731c-0.036652,2.216949 -0.130554,4.417053 -0.022186,6.631592c0.250214,2.801758 -0.131195,5.551895 0.123932,8.361237c0.149689,3.785217 0.517822,7.561417 1.257782,11.280136c0.853058,4.362732 1.827576,8.68544 2.929657,12.998032c1.487518,5.221878 2.676575,10.510193 4.325439,15.68956c1.837799,5.561707 3.347626,11.266235 5.942719,16.545181c2.555603,5.011841 4.909454,10.115112 7.765503,14.969757c2.55838,4.101135 4.810242,8.400269 7.848083,12.169159c1.403168,1.680756 2.90448,3.314514 4.19043,5.04071c2.15625,2.89447 -2.061554,5.795044 -4.206177,2.891937z" stroke-width="1px" fill-rule="nonzero" fill="#000000"/>
   <path id="path2755" d="m226.896973,171.543579c-1.081055,-2.447632 -1.633667,-5.074951 -2.296906,-7.643097c-1.427094,-4.678146 -2.872284,-9.361572 -4.650513,-13.920746c-2.183228,-5.428024 -3.526123,-11.11203 -4.65451,-16.83548c-1.012024,-5.773087 -2.052032,-11.540955 -3.092896,-17.308899c-0.860107,-4.366425 -1.42923,-8.77652 -1.944824,-13.190765c-0.277679,-3.621414 -0.572113,-7.242447 -0.740875,-10.871872c-0.27356,-2.644455 -0.354584,-5.323532 -0.341797,-7.979202c-0.125092,-2.010132 0.507294,-3.908783 0.929016,-5.842468c0.965485,-2.366669 2.061584,-3.138275 4.458221,-3.658554c3.26532,0.527145 6.036987,2.374451 8.758942,4.154877c4.091858,3.209061 8.316101,6.235535 12.343994,9.526581c4.41748,3.617935 8.062866,8.006424 11.52179,12.516113c2.253052,2.870056 4.425598,5.766724 6.437378,8.808029c0.553345,0.836502 -0.537781,1.617813 -1.153137,0.825836l0,0c-2.223541,-2.861572 -4.32428,-5.804169 -6.40979,-8.770752c-3.391632,-4.423309 -6.962006,-8.731567 -11.293793,-12.28096c-3.943298,-3.223022 -7.931946,-6.530914 -12.549011,-8.747864c-2.385559,-1.128464 -4.600159,-2.709702 -7.321014,-2.597427c-0.473877,0.373306 -1.885223,-0.12851 -1.585571,1.249115c-0.553589,1.645004 -1.061035,3.261932 -1.194763,5.009842c-0.273926,2.583481 -0.386658,5.188385 -0.620148,7.781189c-0.112,3.590225 -0.253845,7.159775 0.240295,10.73378c0.438477,4.3871 1.001862,8.754135 1.860931,13.082626c1.03952,5.760452 2.0784,11.520874 3.088684,17.28656c1.108673,5.62883 2.380951,11.253601 4.639252,16.55191c1.908051,4.536057 4.234863,8.88063 6.092529,13.440948c1.074005,2.222565 2.18399,4.459579 3.169373,6.722519c1.179443,2.70871 -2.497253,4.660675 -3.690857,1.95816z" stroke-width="1px" fill-rule="nonzero" fill="#000000"/>
   <path id="path2763" d="m229.774811,169.752838c0.395966,-2.108551 0.377441,-4.278519 0.414063,-6.421982c0.153717,-3.517105 -0.070679,-7.048828 -0.215729,-10.571075c-0.17334,-3.645187 -0.14389,-7.29361 -0.096497,-10.940964c0.101318,-2.652695 -0.235138,-5.246506 -0.628845,-7.851303c-0.210571,-2.163498 -0.303253,-4.316376 -0.479736,-6.444885c-0.384674,-1.857681 -0.001373,-3.635147 0.33078,-5.450577c0.133972,-1.553818 1.210602,-2.475098 2.042053,-3.645782c1.354584,-1.693893 2.78891,-1.410263 4.660217,-1.577789c2.985992,0.489731 5.373322,2.152817 7.727386,3.934464c3.029327,2.496796 5.598114,5.411057 7.828461,8.627655c2.576752,4.012802 4.719269,8.281189 6.915405,12.50827c2.121277,4.229645 4.133362,8.513763 6.127502,12.804626c1.775665,3.536636 3.075348,7.23027 4.376343,10.945984c0.157318,0.492264 0.314606,0.984512 0.471893,1.4767c0.305267,0.955353 -1.045959,1.387024 -1.351105,0.431671l0,0c-0.154999,-0.485321 -0.310028,-0.970581 -0.465088,-1.455902c-1.281067,-3.661331 -2.731659,-7.256485 -4.318298,-10.800705c-1.985352,-4.271957 -3.988556,-8.537155 -6.099915,-12.748459c-2.16861,-4.174179 -4.283752,-8.389236 -6.823029,-12.35498c-2.112061,-3.05722 -4.479614,-5.988846 -7.611359,-8.051392c-2.197754,-1.148376 -4.321747,-2.559708 -6.907166,-2.697662c-0.86972,0.254669 -1.799133,0.014435 -2.42392,0.832962c-0.565399,0.781036 -1.260742,1.446594 -1.655609,2.338043c-0.1604,1.587143 -0.361237,3.173813 -0.392914,4.775925c0.070648,2.106781 0.220398,4.245255 0.366974,6.390823c-0.053101,2.676666 -0.13858,5.357407 -0.271851,8.035095c-0.04718,3.62149 -0.076569,7.244064 0.095642,10.863434c0.14444,3.508713 0.223267,7.040115 0.83136,10.499893c0.289459,2.062057 0.485321,4.194977 1.288361,6.125336c1.020996,2.454224 -4.225922,3.035004 -3.735382,0.422577z" stroke-width="1px" fill-rule="nonzero" fill="#000000"/>
   <path id="path2765" d="m250.648346,130.568344c0.319092,-1.82724 0.437897,-3.698334 0.564514,-5.549362c0.006897,-2.957199 0.675171,-5.811249 1.377045,-8.663498c0.614929,-3.22493 1.733246,-6.323776 2.944946,-9.364822c1.326019,-2.892349 3.446655,-4.882965 5.884491,-6.804077c2.101715,-1.637985 4.522705,-2.708298 6.862488,-3.942307c2.562744,-1.372314 5.098358,-1.435486 7.864868,-1.261154c3.664978,1.130875 6.253876,3.775772 8.97464,6.301636c3.565521,3.352005 5.255585,7.994278 6.93634,12.472656c0.352386,0.938995 -0.977081,1.436966 -1.328247,0.497528l0,0c-1.607056,-4.298981 -3.897522,-8.003952 -7.228821,-11.215149c-2.425568,-1.948135 -4.849976,-3.952393 -7.967834,-4.628891c-2.136902,-0.148071 -3.890381,-0.332626 -5.863617,0.875534c-2.237488,0.945892 -4.369019,2.088333 -6.407288,3.423462c-1.948151,1.580933 -3.79126,3.242554 -4.824066,5.603699c-1.238159,2.811707 -2.395691,5.61377 -2.91748,8.667847c-0.37149,2.681961 -0.790863,5.380402 -0.752075,8.098633c0.080261,1.68895 0.05954,3.461533 0.632935,5.061554c1.138336,3.176453 -5.333374,3.750656 -4.752838,0.426712z" stroke-width="1px" fill-rule="nonzero" fill="#000000"/>
   <path id="path2767" d="m288.845581,141.692886c0.305847,-1.605362 0.392334,-3.20723 0.644043,-4.823669c0.265045,-3.310471 0.686615,-6.560669 1.221954,-9.843369c0.778534,-3.743591 1.734039,-7.43544 2.660522,-11.143463c0.579712,-3.203598 1.576935,-6.302719 2.691284,-9.348267c0.808716,-2.442932 1.967621,-4.682404 3.353119,-6.835083c1.121124,-1.872208 2.826385,-3.195175 4.455811,-4.551041c1.692841,-1.654938 3.512054,-2.146973 5.774689,-2.45311c3.044891,-0.08812 5.609467,1.074112 8.240692,2.334c3.178467,2.466797 5.774139,5.530533 7.976807,8.888046c2.911163,4.044922 4.625214,8.725372 6.793579,13.1651c2.59314,4.464233 4.325897,9.355209 6.050507,14.201706c1.405884,4.490173 2.067139,9.133392 3.449982,13.627106c0.294952,0.958588 -1.060669,1.375748 -1.355652,0.417175l0,0c-1.371429,-4.456818 -3.450897,-8.579376 -5.267548,-12.866165c-1.82193,-4.706223 -3.914001,-9.2715 -5.943726,-13.88678c-2.068817,-4.262115 -4.452179,-8.386414 -6.930542,-12.420181c-2.043518,-2.821793 -4.104889,-5.650711 -7.026825,-7.621201c-1.776764,-1.294098 -3.448334,-2.626526 -5.736664,-2.651306c-1.467377,0.363235 -3.0289,0.491974 -4.325653,1.452744c-1.394012,1.23613 -2.847717,2.375839 -4.027618,3.85585c-1.274963,1.974045 -2.673035,3.904144 -3.527832,6.122223c-1.163635,2.951813 -2.34079,5.878708 -3.21048,8.936386c-0.972992,3.637421 -2.02829,7.287537 -2.46817,11.037018c-0.394165,3.224197 -0.841919,6.452667 -0.857422,9.711288c0.102295,1.570663 0.022858,3.145935 0.374542,4.694992c0.471161,2.075119 -3.407654,2.090332 -3.009399,0z" stroke-width="1px" fill-rule="nonzero" fill="#000000"/>
   <path id="path2769" d="m324.038544,79.22377c2.152618,-2.395111 3.428314,-5.432617 5.031799,-8.214111c2.39621,-4.056412 5.123291,-7.900726 7.900146,-11.701813c2.236786,-3.186035 4.744904,-6.156174 7.289001,-9.09613c1.413025,-2.037109 3.256378,-3.539551 5.174103,-5.04274c2.30246,-1.310349 3.52951,-0.50972 5.691833,0.425934c1.847565,1.718399 3.618866,3.530106 5.367249,5.322021c2.405182,3.51889 4.786591,7.022812 6.710297,10.839188c2.079041,4.052475 4.159119,8.057953 5.70575,12.355682c1.480713,3.659897 2.668457,7.421921 3.782196,11.207962c0.946899,2.48584 0.855499,5.175278 0.861969,7.728378c0.002533,1.002945 -0.935822,1.200439 -1.385437,0.30394l0,0c-1.10144,-2.196228 -2.300079,-4.507782 -2.951813,-6.99118c-1.180786,-3.688538 -2.299683,-7.395691 -3.453491,-11.089951c-1.544891,-4.118362 -3.02948,-8.305206 -5.067261,-12.201218c-1.936798,-3.556778 -3.687653,-7.311218 -6.466583,-10.303055c-1.334045,-1.819427 -2.536957,-3.677734 -4.567169,-4.799942c-1.02124,-0.324036 -1.888702,-1.084091 -3.085724,-0.724136c-1.880341,1.114014 -3.749634,2.235764 -5.238647,3.920975c-2.53244,2.892212 -5.013031,5.827347 -7.220978,8.981003c-2.747009,3.759674 -5.445282,7.561783 -7.81665,11.573502c-1.61853,2.806961 -3.383392,5.59404 -4.240662,8.736786c-0.440186,1.613693 -3.138031,0.012955 -2.019928,-1.231094z" stroke-width="1px" fill-rule="nonzero" fill="#000000"/>
   <path id="path2771" d="m338.897583,140.07077c0.839203,-1.852478 2.193024,-3.395386 3.309631,-5.092163c2.420868,-3.721008 5.243835,-7.141434 7.877411,-10.710587c3.182098,-4.186737 6.859039,-7.945679 10.211273,-11.987976c2.874817,-3.497742 6.019897,-6.74115 9.275787,-9.879868c2.341064,-2.310287 4.741455,-4.547531 7.141876,-6.797729c1.481689,-1.585846 3.363708,-2.655472 5.163361,-3.778915c3.412567,-0.88327 4.47464,1.135803 4.977142,4.107666c0.973785,2.880219 1.377014,5.856537 1.707703,8.890533c0.577057,4.325165 0.787384,8.685455 0.979462,13.04097c0.118134,3.043365 0.300201,6.083801 0.453705,9.125534c0.050568,1.001678 -1.366028,1.073151 -1.416595,0.071518l0,0c-0.153656,-3.044769 -0.335846,-6.088165 -0.454102,-9.134567c-0.18924,-4.291901 -0.345917,-8.603638 -1.024811,-12.851685c-0.744019,-2.682388 -1.349274,-5.584412 -2.728943,-7.970413c-1.008881,0.17189 -1.563141,-0.162796 -0.335236,0.057114c-1.350037,0.740189 -2.712677,1.462021 -3.873657,2.565399c-2.585144,1.935379 -5.129211,3.898422 -7.650299,5.917557c-3.26004,2.889938 -6.522034,5.778351 -9.378571,9.083359c-3.451477,3.84729 -6.428314,8.069122 -9.559204,12.177032c-2.611969,3.37291 -4.566071,7.100845 -6.32251,10.983063c-0.834625,1.705185 -1.436035,3.511978 -2.449432,5.107361c-2.497803,3.932159 -7.826324,1.320099 -5.903992,-2.923203z" stroke-width="1px" fill-rule="nonzero" fill="#000000"/>
   <path id="path2773" d="m355.050751,163.20253c1.138031,-1.618805 2.27356,-3.191895 3.592957,-4.669662c1.26059,-2.017105 3.060242,-3.377151 4.984497,-4.692154c0.828033,-0.565872 1.555969,0.372467 0.879395,1.112839l0,0c-1.428131,1.562729 -2.872467,3.146118 -4.283051,4.746017c-0.84024,1.537094 -1.828125,3.033447 -1.957764,4.815903c-0.178223,2.449768 -4.628662,0.696426 -3.216034,-1.312943z" stroke-width="1px" fill-rule="nonzero" fill="#000000"/>
   <path id="path2777" d="m378.363159,161.036392c-0.427765,-1.020615 -1.193604,-1.806274 -1.822052,-2.699814c-1.663879,-1.473312 -3.664246,-2.257645 -5.646576,-3.168808c-0.467377,0.024933 -0.934784,0.049881 -1.402161,0.074814c-1.001526,0.053452 -1.071259,-1.371597 -0.069305,-1.416687l0,0c0.530029,-0.023849 1.060059,-0.047684 1.590088,-0.071533c2.919678,-0.233521 5.430023,-0.151566 7.914795,1.839264c1.309753,1.080963 2.575958,2.07431 3.164551,3.750168c0.959625,2.732285 -2.610046,4.363434 -3.72934,1.692596z" stroke-width="1px" fill-rule="nonzero" fill="#000000"/>
   <path id="path2783" d="m387.392273,136.462555c-1.726593,1.631973 -2.388947,4.181122 -3.012299,6.465652c-1.468842,6.080185 -1.80896,12.430695 -2.193054,18.666962c-0.207581,3.296524 -0.097198,6.595261 0.027313,9.891251c0.037842,1.002197 -1.379791,1.055573 -1.417389,0.053345l0,0c-0.125427,-3.342834 -0.23645,-6.688522 -0.025635,-10.03186c0.390564,-6.33046 1.185364,-12.617737 1.678711,-18.932083c0.300262,-3.050278 0.25946,-6.215271 1.32135,-9.122696c1.14212,-3.127243 6.040588,0.722519 3.621002,3.00943z" stroke-width="1px" fill-rule="nonzero" fill="#000000"/>
   <path id="path2785" d="m392.314087,135.613968c-0.318085,1.196182 -0.070526,2.375259 -0.025177,3.573853c0.037933,1.002213 -1.063568,1.180313 -1.398773,0.235031l0,0c-0.362274,-1.021576 -0.360931,-2.144379 -1.328339,-2.863022c-1.651886,-1.227203 3.281006,-2.934601 2.752289,-0.945862z" stroke-width="1px" fill-rule="nonzero" fill="#000000"/>
   <path id="path2787" d="m397.36261,142.187744c-0.148773,-2.15715 -0.354523,-4.121033 -0.165405,-6.283295c0.232422,-3.013779 1.080353,-5.985855 1.866913,-8.906235c0.484589,-2.589066 1.539703,-4.931915 2.746368,-7.241943c1.127533,-1.924377 2.523254,-3.279373 4.354614,-4.433334c4.125122,-0.466187 4.75,2.258804 6.266724,5.5112c1.655762,4.905731 3.769165,9.624725 5.444397,14.524765c0.343506,1.075211 0.687073,2.150421 1.030701,3.225586c0.305298,0.955353 -1.045959,1.387054 -1.351135,0.431656l0,0c-0.340576,-1.066208 -0.681152,-2.132416 -1.021729,-3.198624c-1.618103,-4.737732 -3.134338,-9.641388 -6.613403,-13.382141c-0.66571,-0.642746 -3.775574,-2.318115 -1.781982,-2.220886c-0.645996,0.520325 -1.901733,0.966431 -2.289612,2.070236c-1.134888,1.853455 -2.314514,3.691177 -2.908142,5.814438c-0.718719,2.748199 -1.402893,5.485977 -1.920776,8.263474c-0.236938,1.979126 -0.919586,3.844391 -0.90741,5.825104c0.011871,1.944565 -2.616333,1.939987 -2.750122,0z" stroke-width="1px" fill-rule="nonzero" fill="#000000"/>
   <path id="path2791" d="m384.746216,79.511047c1.836517,-2.773163 3.999573,-5.411682 5.79364,-8.309158c3.033752,-4.871246 5.955475,-9.810867 8.864807,-14.757019c2.068939,-3.577759 4.389282,-6.996399 6.677429,-10.434402c1.617859,-2.58342 3.690857,-4.157242 6.39032,-5.364212c3.436951,-0.285202 5.303345,1.688538 7.362915,4.149643c2.700989,2.905914 3.833191,6.622284 4.870361,10.37352c1.525879,5.264389 2.779968,10.627487 3.525513,16.058838c0.977966,5.601089 1.054138,11.278824 1.303833,16.939346c0.16156,2.375839 -0.157959,4.727249 -0.233826,7.099365c-0.032104,1.002441 -1.449768,0.957016 -1.417664,-0.04541l0,0c0.0755,-2.355453 -0.109741,-4.683029 0.016357,-7.038284c0.141968,-5.59082 -0.32019,-11.192734 -1.121094,-16.725143c-0.954651,-5.312042 -1.714355,-10.673721 -3.427185,-15.81752c-1.420898,-3.327866 -3.377136,-6.220871 -5.474915,-9.147552c-1.472351,-1.311142 -2.652161,-2.846771 -4.731567,-3.036331c-2.296509,0.723679 -4.134338,1.504089 -5.659485,3.632294c-2.596741,3.147202 -4.860168,6.50592 -6.858429,10.074951c-2.914795,4.955399 -5.84201,9.904221 -8.881439,14.784592c-1.755341,2.834961 -3.180847,5.836777 -4.578064,8.761414c-0.823608,1.723999 -3.476471,0.394043 -2.421509,-1.198929z" stroke-width="1px" fill-rule="nonzero" fill="#000000"/>
   <path id="path2793" d="m424.960327,98.427963c2.325195,-1.485306 4.062988,-3.696381 5.918396,-5.706299c1.835083,-2.181686 3.402405,-4.535583 5.131226,-6.795807c1.132263,-1.601151 2.664246,-2.851395 4.144592,-4.123047c2.781738,-0.82103 4.273376,-0.188812 6.265381,1.619278c1.797852,2.845673 2.625488,5.921661 3.306458,9.177353c0.571716,5.552353 0.879883,11.126968 0.74469,16.708954c-0.132263,6.674194 -1.054138,13.299454 -1.888,19.91449c-1.504028,7.341324 -3.429565,14.559372 -5.916382,21.631363c-2.849243,6.695038 -4.34967,13.909348 -7.797424,20.332672c-2.25769,2.549988 -3.853455,5.15509 -5.037537,8.314514c-0.35199,0.939148 -1.680237,0.441345 -1.328186,-0.497772l0,0c1.182495,-3.155029 1.686584,-6.152466 1.628479,-9.554932c1.527893,-7.075012 5.192444,-13.438477 7.138306,-20.408371c2.164978,-6.755875 4.67572,-13.497696 5.074097,-20.651794c0.897766,-6.333832 1.308044,-12.70903 1.427063,-19.103958c-0.095398,-5.117188 -0.176697,-10.254379 -1.504089,-15.237244c-0.528625,-2.380356 -0.980347,-4.783813 -1.289917,-7.186386c0.185608,-0.231506 0.99054,-0.817184 0.962708,-1.200607c-1.227417,0.572861 -2.761292,1.116318 -3.853577,2.287827c-2.154114,1.778702 -4.304382,3.581848 -6.142395,5.709717c-1.679138,2.012558 -3.739014,3.896545 -4.3703,6.503983c-0.52179,2.155502 -4.482544,-0.540009 -2.613586,-1.733932z" stroke-width="1px" fill-rule="nonzero" fill="#000000"/>
   <path id="path2805" d="m267.045715,93.616562c1.069153,-2.94368 2.692139,-5.720657 3.993073,-8.609467c2.757721,-6.080215 5.089539,-12.359955 7.486755,-18.595169c2.104797,-5.471146 3.886383,-11.060928 6.079681,-16.499329c1.142914,-3.670883 2.496246,-7.258408 4.079834,-10.749847c1.24704,-2.778419 3.082947,-4.734863 5.47403,-6.474518c3.892914,-2.013069 6.500854,-0.128685 9.614807,2.26368c3.119476,3.331612 6.20694,6.748558 8.618561,10.63279c2.884186,4.430679 5.58905,9.017288 8.127625,13.661896c2.206238,4.215027 4.013733,8.620743 5.881134,12.991776c0.394043,0.922287 -0.913147,1.47287 -1.307159,0.550568l0,0c-1.848602,-4.326996 -3.637207,-8.688553 -5.818726,-12.862335c-2.492737,-4.565201 -5.341766,-8.782822 -9.245209,-12.287003c-3.242493,-2.677307 -5.988831,-5.968521 -9.579559,-8.214279c-1.010712,-0.512527 -2.030975,-1.109222 -3.049774,-1.547447c-1.292206,1.234505 -2.606812,2.329094 -3.373322,4.02137c-1.766571,3.209396 -3.550964,6.446655 -5.06189,9.806076c-2.259125,5.389816 -4.75946,10.678986 -6.906403,16.113937c-2.489197,6.037323 -5.212891,12.145798 -6.246857,18.624054c-0.463562,2.873505 -0.779083,5.757477 -0.963257,8.633377c-0.358734,5.60202 -9.719635,3.816132 -7.803345,-1.460129z" stroke-width="1px" fill-rule="nonzero" fill="#000000"/>
   <path id="path2811" d="m221.184814,75.218719c1.723572,-1.42131 3.111115,-3.169922 4.545319,-4.844971c1.890381,-2.958496 3.666565,-5.98941 5.508728,-8.978928c0.509338,-0.893509 1.117584,-1.724319 1.675995,-2.585968c0.545471,-0.841629 1.724487,-0.053131 1.179047,0.788498l0,0c-0.55072,0.84964 -1.151764,1.668045 -1.652679,2.549927c-1.833832,2.975906 -3.701538,5.938187 -5.35733,9.017731c-0.743927,2.037994 -1.599426,4.076782 -1.970276,6.242111c-0.536804,3.134338 -6.382263,-0.165283 -3.928802,-2.1884z" stroke-width="1px" fill-rule="nonzero" fill="#000000"/>
   <path id="path2833" d="m255.355103,48.679504c2.095398,0.286926 3.71582,1.552277 5.536102,2.549026c2.342987,1.539124 4.757324,2.941208 7.147186,4.388916c2.186798,1.160538 3.974823,2.770599 5.691406,4.52179c1.237793,1.546265 2.412659,2.950668 3.855377,4.239029c0.970001,0.826538 1.810425,1.821564 2.649933,2.755814c-0.265015,0.466858 -0.530029,0.933701 -0.795074,1.400574c-0.563416,0.992477 -0.176514,0.545471 -1.163361,1.118729l0,0c-0.458069,0.266129 -0.916168,0.532227 -1.374237,0.79834c-0.953125,-0.917267 -1.944092,-1.848175 -2.820496,-2.855469c-1.090149,-1.605164 -2.260101,-3.04866 -3.581696,-4.497009c-1.491974,-1.451538 -2.966217,-2.950363 -4.665192,-4.187653c-2.171051,-1.612198 -4.327393,-3.203033 -6.886078,-4.185059c-1.583984,-0.861847 -3.185425,-1.592743 -4.782471,-2.34697c-2.484894,-1.173492 -1.534058,-4.072861 1.188599,-3.700058z" stroke-width="1px" fill-rule="nonzero" fill="#000000"/>
   <path id="path2841" d="m355.259491,45.337982c1.828796,-1.030304 3.314209,-2.548798 4.848267,-3.953079c2.842346,-2.237366 5.129944,-5.043114 7.567291,-7.694092c1.623352,-2.09977 3.430847,-4.040665 5.28125,-5.936852c2.078461,-1.989632 4.107635,-2.000099 6.774506,-1.81385c3.182587,1.244949 5.396301,4.024574 7.735321,6.391541c2.833527,3.192749 5.252991,6.720047 7.799896,10.142944c1.82193,2.639511 3.648651,5.22084 5.055939,8.101593c0.507233,1.222931 0.150604,2.504288 -0.03006,3.771515c-0.141479,0.99292 -0.506042,1.064621 -1.329987,0.492813l0,0c-0.926483,-0.64296 -1.941559,-1.279068 -2.584259,-2.222412c-1.544617,-2.628815 -2.739594,-5.441055 -4.352539,-8.040131c-2.054993,-3.5159 -4.215118,-6.916435 -7.097839,-9.835312c-1.835022,-1.830673 -3.512512,-3.674553 -6.159912,-4.442909c-1.142426,0.071075 -2.062622,-0.48288 -3.074432,0.646126c-1.960114,1.576866 -3.904694,3.167549 -5.749084,4.884521c-2.515198,2.558136 -5.154297,5.014496 -7.117462,8.043121c-1.259399,1.685135 -2.605316,3.34935 -3.558197,5.240295c-1.752289,3.477448 -7.401398,-1.864502 -4.008698,-3.775833z" stroke-width="1px" fill-rule="nonzero" fill="#000000"/>
   <path id="path2845" d="m171.952179,82.192825c0.272675,-2.062805 0.499878,-4.152512 0.844604,-6.209579c0.472534,-2.932816 0.859131,-5.866806 1.093872,-8.826736c0.157074,-2.48175 1.116821,-4.575546 2.388824,-6.656067c2.416077,-2.541351 4.712067,-2.299103 7.800751,-1.893478c3.314392,0.96991 6.2211,2.460571 9.105164,4.30864c3.011841,2.468079 5.912415,4.989349 8.716919,7.690674c2.112701,1.728378 3.588531,3.882843 4.993713,6.173431c0.524445,0.854904 -0.330078,1.56929 -1.086945,0.91124l0,0c-1.971008,-1.713638 -3.813629,-3.499146 -5.403778,-5.587769c-2.622314,-2.664078 -5.158875,-5.506577 -8.365692,-7.485428c-2.551056,-1.60878 -4.928314,-3.512589 -8.095856,-3.071518c-1.411255,0.507141 -2.880188,0.671478 -3.938568,1.83017c-0.751984,1.452301 -1.839417,2.746323 -1.997711,4.556122c-0.766235,2.77359 -1.252014,5.585541 -1.493103,8.467056c-0.158813,2.141388 -0.466949,4.269241 -0.77243,6.379059c-0.388519,2.683578 -4.145111,2.102386 -3.789764,-0.585815z" stroke-width="1px" fill-rule="nonzero" fill="#000000"/>
   <path id="path2853" d="m287.001404,163.58255c1.108948,1.847839 1.293121,3.947021 1.511047,6.059235c0.618591,3.873077 0.898407,7.145569 -0.894775,10.714539c0.086273,0.71167 0.172607,1.42334 0.258942,2.13501c0.120728,0.995667 -1.287323,1.166443 -1.408081,0.170807l0,0c-0.08609,-0.7099 -0.17218,-1.419739 -0.25827,-2.129608c-2.533783,-2.950439 -3.070709,-6.118835 -3.649078,-9.887054c-0.412598,-2.167969 -0.921326,-4.312744 -0.130646,-6.429794c1.141632,-3.056671 2.891785,-3.430862 4.570862,-0.633133z" stroke-width="1px" fill-rule="nonzero" fill="#000000"/>
   <path id="path2855" d="m301.073364,160.077744c0.132324,2.637177 -0.229919,5.757874 -0.228729,8.594406c0.180939,3.474548 -0.678406,6.734222 -0.327515,10.171936c0.101837,0.997742 -1.286591,1.154327 -1.409454,0.158966l0,0c-0.428497,-3.47168 -1.948151,-6.577118 -2.183563,-10.114258c-0.299591,-2.735596 -0.837189,-5.711319 -1.224304,-8.232147c-0.580078,-3.777313 5.182037,-4.395737 5.373566,-0.578903z" stroke-width="1px" fill-rule="nonzero" fill="#000000"/>
   <path id="path2857" d="m316.243134,146.917648c0.242889,2.838333 -0.357513,5.573196 -0.815918,8.36145c-0.16275,5.394424 -2.427002,10.1353 -3.939484,15.189499c-0.287537,0.960815 -1.213013,0.923492 -1.417175,-0.058441l0,0c-1.073547,-5.163498 -2.696014,-10.100082 -2.236145,-15.469452c-0.195801,-2.42305 -0.566833,-4.845398 -0.745758,-7.257874c-0.480469,-6.47789 8.600616,-7.237213 9.15448,-0.765182z" stroke-width="1px" fill-rule="nonzero" fill="#000000"/>
   <path id="path2859" d="m326.287262,160.151764c-0.385559,2.392151 -0.942352,4.80632 -1.289185,7.239563c-0.334869,2.846832 -1.291565,5.482666 -1.801331,8.286987c-0.179382,0.986755 -1.405365,0.881653 -1.413208,-0.121246l0,0c-0.022491,-2.892151 -0.479431,-5.689026 -0.072174,-8.584778c0.250885,-2.371765 0.370422,-4.739822 0.388275,-7.105453c0.022369,-2.96785 4.659882,-2.645187 4.187622,0.284927z" stroke-width="1px" fill-rule="nonzero" fill="#000000"/>
   <path id="path2861" d="m340.675507,153.939972c-0.660065,3.40921 -2.013916,6.90892 -2.996796,10.320068c-1.400635,4.567871 -3.52713,8.602875 -4.31781,13.347748c-0.164856,0.989319 -1.563965,0.756165 -1.399109,-0.233124l0,0c0.782196,-4.693878 0.220428,-9.200409 0.348999,-13.930374c0.05072,-3.405869 -0.308777,-6.844345 -0.593414,-10.14299c-0.545959,-6.326843 10.165192,-5.595901 8.95813,0.638672z" stroke-width="1px" fill-rule="nonzero" fill="#000000"/>
   <path id="path2872" d="m363.387878,330.376648c1.829407,2.404022 3.946442,4.616333 5.9841,6.864807c5.064789,3.350159 10.131561,7.181061 14.420746,11.560791c5.138245,5.417908 10.20813,10.866425 15.338379,16.313782c4.124939,4.451416 9.445129,7.569305 14.373108,11.075439c4.977295,2.884674 10.27771,4.573822 15.765137,6.136963c7.492676,1.708649 15.233582,1.852295 22.888184,1.874268c10.967529,-0.316437 21.891418,-1.328552 32.694946,-3.230408c12.558777,-2.100525 24.672852,-6.057892 36.56897,-10.505371c9.8974,-3.841858 19.527527,-8.339752 28.996582,-13.133575c5.062439,-2.773956 10.220459,-5.376434 15.291504,-8.121155c2.934021,-1.610962 5.765198,-2.72345 9.018616,-3.156494c2.012146,1.01413 4.174255,1.59256 6.198364,2.384216c1.320923,0.516663 1.213257,0.392273 0.923462,1.780701l0,0c-0.448181,2.147217 -1.047913,4.335968 -1.542297,6.534821c-2.7948,2.596161 -5.703674,4.253937 -9.535461,5.156494c-5.518616,1.534851 -10.96051,3.34256 -16.470947,4.919342c-10.228577,3.251465 -20.293823,6.96817 -30.389709,10.604584c-12.368164,4.2211 -24.82373,8.183289 -37.546204,11.20755c-11.149719,2.427399 -22.342651,4.792603 -33.755127,5.594971c-8.733521,0.785187 -17.527832,1.350952 -26.223083,-0.196198c-6.92627,-1.491943 -13.823914,-4.033112 -19.416687,-8.482971c-5.597137,-4.183136 -10.589661,-8.553284 -14.90979,-14.109009c-4.817291,-5.646912 -9.326721,-11.527985 -14.141907,-17.150055c-4.013184,-4.495483 -7.622955,-9.38382 -11.463776,-13.96286c-2.418243,-2.047272 -4.818604,-4.142883 -7.235504,-6.161407c-3.060913,-2.556427 1.753326,-6.972839 4.168396,-3.799225z" stroke-width="1px" fill-rule="nonzero" fill="#000000"/>
   <path id="path2880" d="m441.585449,287.370178c5.556763,0.67218 11.077515,-0.06781 16.567688,-0.955841c13.491394,-1.637909 26.368958,-6.130219 39.127563,-10.594879c14.283997,-4.925446 28.256653,-10.658081 41.984863,-16.954865c9.196411,-4.741516 17.760498,-10.533203 26.239746,-16.426514c5.404602,-3.773712 10.837952,-7.481293 16.050964,-11.508026c3.821716,-2.888763 7.207825,-6.232697 10.449402,-9.727966c1.840576,-1.870453 3.247375,-3.928436 4.577942,-6.152527c0.147461,-0.534576 0.024414,-1.108734 0.036682,-1.663116c0.707153,0.116089 -3.735046,-1.38147 -4.476685,-1.599854c-7.692566,-1.358246 -15.585876,-1.060516 -23.355469,-0.577698c-10.697937,0.476929 -21.309875,2.09845 -31.903748,3.587433c-10.26532,1.660614 -20.542603,3.252533 -30.789185,5.026245c-1.397583,0.241913 -1.739685,-1.734619 -0.342102,-1.976501l0,0c10.267578,-1.777039 20.565735,-3.372925 30.852112,-5.036072c10.641663,-1.495697 21.306458,-2.757904 31.968689,-4.067505c8.085754,-0.901459 16.095886,-2.263 24.187439,-3.068268c4.700989,0.194366 9.13501,-0.081879 12.038574,4.191895c0.60083,3.14447 0.920349,5.615662 -0.855896,8.499756c-1.622009,3.131195 -3.152893,6.415436 -5.760132,8.868164c-3.862061,3.470093 -7.833984,6.893219 -12.185913,9.798798c-5.69458,3.697968 -11.24939,7.623871 -17.365051,10.624298c-9.310059,4.769531 -18.874573,9.012573 -28.531189,13.030701c-13.785156,6.322144 -27.81543,12.079163 -42.158508,17.024902c-12.889404,4.510345 -25.775574,9.030579 -38.510742,13.965363c-5.798645,1.887634 -11.430176,4.178223 -17.200684,6.095764c-6.99469,2.32431 -7.963745,-11.288788 -0.646362,-10.403687z" stroke-width="1px" fill-rule="nonzero" fill="#000000"/>
  </g>
 </g>
</svg>